<?xml version="1.0" encoding="utf-8"?>
<!-- Generator: Adobe Illustrator 27.9.5, SVG Export Plug-In . SVG Version: 9.03 Build 54986)  -->
<svg version="1.1" xmlns="http://www.w3.org/2000/svg" xmlns:xlink="http://www.w3.org/1999/xlink" x="0px" y="0px" width="841.9px"
	 height="595.3px" viewBox="0 0 841.9 595.3" style="enable-background:new 0 0 841.9 595.3;" xml:space="preserve">
<style type="text/css">
	.st0{display:none;}
	.st1{display:inline;fill:#0F3142;}
	.st2{display:inline;fill:#12100E;}
	.st3{fill:#6FC7E2;}
	.st4{fill:#2E90C5;}
	.st5{fill:#FFFFFF;}
	.st6{fill:#FF974A;}
	.st7{fill:#0F3142;}
	.st8{fill:#9D9D9D;}
	.st9{fill:#1D1E1B;}
	.st10{fill:#CFCFCF;}
</style>
<g id="Calque_2" class="st0">
</g>
<g id="Calque_1">
	<g id="Calque_1_00000021823343494314281160000010128893334209680007_">
		<g>
			<path class="st4" d="M335.6,256.3h9.7v63.3h34.5v8.1h-44.2V256.3z"/>
			<path class="st4" d="M407.2,329.1c-5.2,0-9.4-1.5-12.8-4.5c-3.4-3-5-7.3-5-12.8c0-4.6,1.1-8.2,3.3-10.8c2.2-2.6,5.2-4.4,8.8-5.5
				s7.4-1.6,11.5-1.6h11.8v-1.4c0-4.6-1.2-7.7-3.5-9.5c-2.3-1.8-5.6-2.7-9.7-2.7c-3.3,0-6.4,0.4-9.6,1.3c-3.1,0.9-6,2.1-8.8,3.7
				v-8.8c2.9-1.1,5.9-2,8.9-2.7c3-0.7,6.1-1.1,9.2-1.1c3.2,0,6.3,0.4,9.3,1.3c3,0.9,5.6,2.3,7.8,4.3c2.2,2,3.7,4.7,4.4,8
				c0.5,2.4,0.8,5.9,0.8,10.7v11c0,3,0.2,6.3,0.5,10s1.1,6.9,2.3,9.7h-8.9c-0.5-1.2-1-2.6-1.3-4c-0.3-1.4-0.6-2.8-0.8-4.1
				c-1.9,3.2-4.5,5.6-7.8,7.2C414.4,328.4,410.9,329.1,407.2,329.1z M409.4,321.8c3.6,0,6.6-0.9,8.9-2.7c2.3-1.8,3.9-4.1,5-7
				c1.1-2.9,1.6-6,1.6-9.3v-2h-11.1c-2.5,0-4.9,0.3-7.3,0.8c-2.4,0.6-4.3,1.6-5.9,3.2c-1.5,1.6-2.3,3.8-2.3,6.8c0,3.4,1,5.9,3.1,7.6
				C403.3,320.9,406,321.8,409.4,321.8z"/>
			<path class="st6" d="M475.9,329.1c-4.5,0-8.5-0.8-12.1-2.4s-6.7-4-9.2-7.3c-5-6.5-7.6-15.6-7.6-27.3c0-7.8,1.1-14.4,3.4-20
				c2.3-5.5,5.6-9.8,9.9-12.7c4.3-3,9.5-4.4,15.5-4.4c3.1,0,5.9,0.3,8.4,0.9c2.5,0.6,5,1.6,7.5,3v9.9c-2.3-1.9-4.9-3.4-7.6-4.5
				c-2.8-1-5.5-1.5-8.3-1.5c-6.2,0-10.9,2.4-14,7.3c-3.1,4.8-4.7,12.2-4.7,22c0,19.5,6.3,29.2,18.8,29.2c2.7,0,5.5-0.5,8.3-1.5
				c2.7-1,5.2-2.5,7.5-4.5v9.9c-2.5,1.3-5,2.3-7.6,3C481.6,328.8,478.9,329.1,475.9,329.1z"/>
			<path class="st6" d="M522.3,329.1c-5.2,0-9.4-1.5-12.8-4.5c-3.4-3-5-7.3-5-12.8c0-4.6,1.1-8.2,3.3-10.8c2.2-2.6,5.2-4.4,8.8-5.5
				c3.6-1.1,7.4-1.6,11.5-1.6h11.8v-1.4c0-4.6-1.2-7.7-3.5-9.5c-2.3-1.8-5.6-2.7-9.7-2.7c-3.3,0-6.4,0.4-9.6,1.3
				c-3.1,0.9-6,2.1-8.8,3.7v-8.8c2.9-1.1,5.9-2,8.9-2.7c3-0.7,6.1-1.1,9.2-1.1c3.2,0,6.3,0.4,9.3,1.3c3,0.9,5.6,2.3,7.8,4.3
				c2.2,2,3.7,4.7,4.4,8c0.5,2.4,0.8,5.9,0.8,10.7v11c0,3,0.2,6.3,0.5,10s1.1,6.9,2.3,9.7h-8.9c-0.5-1.2-1-2.6-1.3-4
				c-0.3-1.4-0.6-2.8-0.8-4.1c-1.9,3.2-4.5,5.6-7.8,7.2C529.5,328.4,526,329.1,522.3,329.1z M524.4,321.8c3.6,0,6.6-0.9,8.9-2.7
				c2.3-1.8,3.9-4.1,5-7c1.1-2.9,1.6-6,1.6-9.3v-2h-11.1c-2.5,0-4.9,0.3-7.3,0.8c-2.4,0.6-4.3,1.6-5.9,3.2c-1.5,1.6-2.3,3.8-2.3,6.8
				c0,3.4,1,5.9,3.1,7.6C518.4,320.9,521.1,321.8,524.4,321.8z"/>
			<path class="st6" d="M564.8,274.2h7.9l0.9,8c3.2-6.2,8.5-9.3,15.7-9.3c10.9,0,16.4,7.2,16.4,21.7v33.2h-8.9v-33.2
				c0-4.8-0.8-8.4-2.5-10.6c-1.7-2.3-4.3-3.4-7.8-3.4c-4.2,0-7.4,1.5-9.6,4.4c-2.2,3-3.4,7.1-3.4,12.5v30.3h-8.8V274.2z"/>
			<path class="st6" d="M622.3,274.2h7.9l0.9,8c3.2-6.2,8.5-9.3,15.7-9.3c10.9,0,16.4,7.2,16.4,21.7v33.2h-8.9v-33.2
				c0-4.8-0.8-8.4-2.5-10.6c-1.7-2.3-4.3-3.4-7.8-3.4c-4.2,0-7.4,1.5-9.6,4.4c-2.2,3-3.4,7.1-3.4,12.5v30.3h-8.8V274.2z"/>
			<path class="st6" d="M702.9,329.1c-8.3,0-14.7-2.5-19.5-7.4c-4.7-5-7.1-11.7-7.1-20.3c0-5.3,0.9-10.1,2.8-14.5s4.6-7.7,8.3-10.3
				c3.7-2.5,8.2-3.8,13.7-3.8c7.1,0,12.7,2.3,16.6,6.9c3.9,4.6,5.9,10.9,5.9,19v4.3h-38.1v0.3c0,5.6,1.5,10,4.4,13.4
				c2.9,3.3,7.3,5,13,5c3.3,0,6.5-0.5,9.6-1.6s6.1-2.3,9-3.8v8.8c-3,1.2-6.1,2.2-9.2,3C709.4,328.8,706.2,329.1,702.9,329.1z
				 M715,296.2c0-3-0.4-5.6-1.3-8c-0.9-2.4-2.3-4.3-4.3-5.7c-2-1.4-4.6-2.1-7.8-2.1c-3.3,0-6,0.7-8.2,2.1c-2.2,1.4-3.9,3.3-5.1,5.7
				c-1.2,2.4-2,5.1-2.3,8H715z"/>
		</g>
	</g>
	<g>
		<path class="st4" d="M219.4,305.8c-6.3,0-11.3-5.1-11.3-11.3c0-6.3,5.1-11.3,11.3-11.3c6.3,0,11.3,5.1,11.3,11.3
			C230.8,300.7,225.7,305.8,219.4,305.8z M219.4,286.4c-4.5,0-8.1,3.6-8.1,8.1s3.6,8.1,8.1,8.1c4.5,0,8.1-3.6,8.1-8.1
			S223.9,286.4,219.4,286.4z"/>
	</g>
	<g>
		<path class="st3" d="M219.4,317.3c-12.6,0-22.8-10.2-22.8-22.8c0-12.6,10.2-22.8,22.8-22.8c12.6,0,22.8,10.2,22.8,22.8
			C242.3,307,232,317.3,219.4,317.3z M219.4,272.9c-11.9,0-21.6,9.7-21.6,21.6c0,11.9,9.7,21.6,21.6,21.6c11.9,0,21.6-9.7,21.6-21.6
			C241,282.5,231.4,272.9,219.4,272.9z"/>
	</g>
	<g>
		<path class="st3" d="M219.4,349.1c-30.2,0-54.7-24.5-54.7-54.7s24.5-54.7,54.7-54.7c30.2,0,54.7,24.5,54.7,54.7
			S249.6,349.1,219.4,349.1z M219.4,241.8c-29,0-52.6,23.6-52.6,52.6c0,29,23.6,52.6,52.6,52.6c29,0,52.6-23.6,52.6-52.6
			C272.1,265.4,248.5,241.8,219.4,241.8z"/>
	</g>
	<g>
		<path class="st3" d="M219.4,370.8c-42.1,0-76.3-34.2-76.3-76.3c0-42.1,34.2-76.3,76.3-76.3c42.1,0,76.3,34.2,76.3,76.3
			C295.8,336.5,261.5,370.8,219.4,370.8z M219.4,219.8c-41.2,0-74.7,33.5-74.7,74.7s33.5,74.7,74.7,74.7s74.7-33.5,74.7-74.7
			S260.6,219.8,219.4,219.8z"/>
	</g>
	<g>
		<g>
			<g>
				<g>
					<g>
						<g>
							<rect x="214.1" y="294" class="st7" width="11.3" height="0.8"/>
						</g>
						<g>
							<rect x="213.3" y="293.1" class="st7" width="12.9" height="2.4"/>
						</g>
					</g>
				</g>
			</g>
			<g>
				<g>
					<g>
						<g>
							<rect x="219.4" y="288.7" class="st7" width="0.8" height="11.3"/>
						</g>
						<g>
							<rect x="218.5" y="287.9" class="st7" width="2.4" height="12.9"/>
						</g>
					</g>
				</g>
			</g>
		</g>
		<g>
			<g>
				<g>
					<g>
						<g>
							<rect x="214.1" y="216.9" class="st7" width="11.3" height="0.8"/>
						</g>
						<g>
							<rect x="213.3" y="216.1" class="st7" width="12.9" height="2.4"/>
						</g>
					</g>
				</g>
			</g>
			<g>
				<g>
					<g>
						<g>
							<rect x="219.4" y="211.7" class="st7" width="0.8" height="11.3"/>
						</g>
						<g>
							<rect x="218.5" y="210.8" class="st7" width="2.4" height="12.9"/>
						</g>
					</g>
				</g>
			</g>
		</g>
		<g>
			<g>
				<g>
					<g>
						<g>
							<rect x="214.1" y="371.1" class="st7" width="11.3" height="0.8"/>
						</g>
						<g>
							<rect x="213.3" y="370.3" class="st7" width="12.9" height="2.4"/>
						</g>
					</g>
				</g>
			</g>
			<g>
				<g>
					<g>
						<g>
							<rect x="219.4" y="365.9" class="st7" width="0.8" height="11.3"/>
						</g>
						<g>
							<rect x="218.5" y="365.1" class="st7" width="2.4" height="12.9"/>
						</g>
					</g>
				</g>
			</g>
		</g>
		<g>
			<g>
				<g>
					<g>
						<g>
							<rect x="290.8" y="294" class="st7" width="11.3" height="0.8"/>
						</g>
						<g>
							<rect x="290" y="293.1" class="st7" width="12.9" height="2.4"/>
						</g>
					</g>
				</g>
			</g>
			<g>
				<g>
					<g>
						<g>
							<rect x="296.1" y="288.7" class="st7" width="0.8" height="11.3"/>
						</g>
						<g>
							<rect x="295.2" y="287.9" class="st7" width="2.4" height="12.9"/>
						</g>
					</g>
				</g>
			</g>
		</g>
		<g>
			<g>
				<g>
					<g>
						<g>
							<rect x="136.7" y="294" class="st7" width="11.3" height="0.8"/>
						</g>
						<g>
							<rect x="135.8" y="293.1" class="st7" width="12.9" height="2.4"/>
						</g>
					</g>
				</g>
			</g>
			<g>
				<g>
					<g>
						<g>
							<rect x="141.9" y="288.7" class="st7" width="0.8" height="11.3"/>
						</g>
						<g>
							<rect x="141.1" y="287.9" class="st7" width="2.4" height="12.9"/>
						</g>
					</g>
				</g>
			</g>
		</g>
		<g>
			<g>
				<g>
					<g>
						<g>
							<g>
								<rect x="142.7" y="365.9" class="st7" width="0.8" height="11.3"/>
							</g>
							<g>
								<rect x="141.9" y="365.1" class="st7" width="2.4" height="12.9"/>
							</g>
						</g>
					</g>
				</g>
				<g>
					<g>
						<g>
							<g>
								<rect x="137.5" y="371.1" class="st7" width="11.3" height="0.8"/>
							</g>
							<g>
								<rect x="136.7" y="370.3" class="st7" width="12.9" height="2.4"/>
							</g>
						</g>
					</g>
				</g>
			</g>
			<g>
				<g>
					<g>
						<g>
							<g>
								<rect x="142.7" y="211.7" class="st7" width="0.8" height="11.3"/>
							</g>
							<g>
								<rect x="141.9" y="210.8" class="st7" width="2.4" height="12.9"/>
							</g>
						</g>
					</g>
				</g>
				<g>
					<g>
						<g>
							<g>
								<rect x="137.5" y="216.9" class="st7" width="11.3" height="0.8"/>
							</g>
							<g>
								<rect x="136.7" y="216.1" class="st7" width="12.9" height="2.4"/>
							</g>
						</g>
					</g>
				</g>
			</g>
		</g>
		<g>
			<g>
				<g>
					<g>
						<g>
							<g>
								<rect x="295.7" y="365.9" class="st7" width="0.8" height="11.3"/>
							</g>
							<g>
								<rect x="295.1" y="365.3" class="st7" width="1.9" height="12.4"/>
							</g>
						</g>
					</g>
				</g>
				<g>
					<g>
						<g>
							<g>
								<rect x="290.5" y="371.1" class="st7" width="11.3" height="0.8"/>
							</g>
							<g>
								<rect x="289.9" y="370.6" class="st7" width="12.4" height="1.9"/>
							</g>
						</g>
					</g>
				</g>
			</g>
			<g>
				<g>
					<g>
						<g>
							<g>
								<rect x="295.7" y="211.7" class="st7" width="0.8" height="11.3"/>
							</g>
							<g>
								<rect x="295.1" y="211.1" class="st7" width="1.9" height="12.4"/>
							</g>
						</g>
					</g>
				</g>
				<g>
					<g>
						<g>
							<g>
								<rect x="290.5" y="216.9" class="st7" width="11.3" height="0.8"/>
							</g>
							<g>
								<rect x="289.9" y="216.3" class="st7" width="12.4" height="1.9"/>
							</g>
						</g>
					</g>
				</g>
			</g>
		</g>
		<g>
			<g>
				<g>
					<g>
						<g>
							<rect x="295.7" y="365.9" class="st7" width="0.8" height="11.3"/>
						</g>
						<g>
							<rect x="294.9" y="365.1" class="st7" width="2.4" height="12.9"/>
						</g>
					</g>
				</g>
			</g>
			<g>
				<g>
					<g>
						<g>
							<rect x="290.5" y="371.1" class="st7" width="11.3" height="0.8"/>
						</g>
						<g>
							<rect x="289.7" y="370.3" class="st7" width="12.9" height="2.4"/>
						</g>
					</g>
				</g>
			</g>
		</g>
		<g>
			<g>
				<g>
					<g>
						<g>
							<rect x="295.7" y="211.7" class="st7" width="0.8" height="11.3"/>
						</g>
						<g>
							<rect x="294.9" y="210.8" class="st7" width="2.4" height="12.9"/>
						</g>
					</g>
				</g>
			</g>
			<g>
				<g>
					<g>
						<g>
							<rect x="290.5" y="216.9" class="st7" width="11.3" height="0.8"/>
						</g>
						<g>
							<rect x="289.7" y="216.1" class="st7" width="12.9" height="2.4"/>
						</g>
					</g>
				</g>
			</g>
		</g>
	</g>
	<g>
		<path class="st3" d="M296.2,346.7c-6.5,9.6-14.8,17.9-24.4,24.4h2.8c8.3-6,15.6-13.3,21.5-21.6V346.7z"/>
		<path class="st3" d="M143.5,241c6.2-8.8,13.9-16.4,22.6-22.6h-2.8c-7.6,5.6-14.2,12.3-19.8,19.8V241z"/>
		<path class="st3" d="M296.2,242.2v-2.8c-5.8-8-12.8-15.1-20.7-21h-2.8C281.9,224.9,289.9,232.9,296.2,242.2z"/>
		<path class="st3" d="M143.5,347.9v2.8c5.8,7.8,12.8,14.7,20.7,20.4h2.8C157.9,364.8,149.9,357,143.5,347.9z"/>
	</g>
	<path class="st6" d="M260.7,294.5c-0.2-1.7-1.6-2.9-3.3-2.9c-1.8,0-3.3,1.5-3.3,3.3c0,2.3-0.2,4.7-0.7,6.9
		c-1.6,7.8-6.1,14.8-12.7,19.9l-9,5.8c-1.5,1-2,3-1,4.5c0.2,0.4,0.5,0.7,0.9,0.9c0.3,0.5,0.8,0.8,1.4,0.8h66.2L260.7,294.5z
		 M244.4,327.1l0.2-0.1c7.9-6,13.4-14.5,15.3-23.9c0.3-1.4,0.5-2.7,0.6-4.1l30.9,31.5h-52.3L244.4,327.1z"/>
	<g>
		<path class="st4" d="M185.4,372.3h-6.5v-77.6c0-22.6,18.4-41,41-41c22.6,0,41,18.4,41,41h-6.5c0-19-15.4-34.4-34.4-34.4
			c-19,0-34.4,15.4-34.4,34.4V372.3z"/>
	</g>
</g>
</svg>
