<?xml version="1.0" encoding="UTF-8" standalone="no"?>
<!-- Generator: Adobe Illustrator 27.9.5, SVG Export Plug-In . SVG Version: 9.03 Build 54986)  -->

<svg
   version="1.1"
   x="0px"
   y="0px"
   width="587.79999"
   height="167.2"
   viewBox="0 0 587.79997 167.2"
   xml:space="preserve"
   id="svg140"
   sodipodi:docname="logo_LaCanne RVB_long-clair.svg"
   xmlns:inkscape="http://www.inkscape.org/namespaces/inkscape"
   xmlns:sodipodi="http://sodipodi.sourceforge.net/DTD/sodipodi-0.dtd"
   xmlns="http://www.w3.org/2000/svg"
   xmlns:svg="http://www.w3.org/2000/svg"><defs
   id="defs140" /><sodipodi:namedview
   id="namedview140"
   pagecolor="#ffffff"
   bordercolor="#000000"
   borderopacity="0.25"
   inkscape:showpageshadow="2"
   inkscape:pageopacity="0.0"
   inkscape:pagecheckerboard="0"
   inkscape:deskcolor="#d1d1d1"><inkscape:page
     x="0"
     y="0"
     width="587.79999"
     height="167.2"
     id="page2"
     margin="0"
     bleed="0" /></sodipodi:namedview>
<style
   type="text/css"
   id="style1">
	.st0{display:none;}
	.st1{display:inline;fill:#0F3142;}
	.st2{display:inline;fill:#12100E;}
	.st3{fill:#6FC7E2;}
	.st4{fill:#2E90C5;}
	.st5{fill:#FFFFFF;}
	.st6{fill:#FF974A;}
	.st7{fill:#0F3142;}
	.st8{fill:#9D9D9D;}
	.st9{fill:#1D1E1B;}
	.st10{fill:#CFCFCF;}
</style>

<g
   id="Calque_1"
   transform="translate(-135.80001,-210.8)">
	<g
   id="Calque_1_00000021823343494314281160000010128893334209680007_">
		<g
   id="g7">
			<path
   class="st4"
   d="m 335.6,256.3 h 9.7 v 63.3 h 34.5 v 8.1 h -44.2 z"
   id="path1" />
			<path
   class="st4"
   d="m 407.2,329.1 c -5.2,0 -9.4,-1.5 -12.8,-4.5 -3.4,-3 -5,-7.3 -5,-12.8 0,-4.6 1.1,-8.2 3.3,-10.8 2.2,-2.6 5.2,-4.4 8.8,-5.5 3.6,-1.1 7.4,-1.6 11.5,-1.6 h 11.8 v -1.4 c 0,-4.6 -1.2,-7.7 -3.5,-9.5 -2.3,-1.8 -5.6,-2.7 -9.7,-2.7 -3.3,0 -6.4,0.4 -9.6,1.3 -3.1,0.9 -6,2.1 -8.8,3.7 v -8.8 c 2.9,-1.1 5.9,-2 8.9,-2.7 3,-0.7 6.1,-1.1 9.2,-1.1 3.2,0 6.3,0.4 9.3,1.3 3,0.9 5.6,2.3 7.8,4.3 2.2,2 3.7,4.7 4.4,8 0.5,2.4 0.8,5.9 0.8,10.7 v 11 c 0,3 0.2,6.3 0.5,10 0.3,3.7 1.1,6.9 2.3,9.7 h -8.9 c -0.5,-1.2 -1,-2.6 -1.3,-4 -0.3,-1.4 -0.6,-2.8 -0.8,-4.1 -1.9,3.2 -4.5,5.6 -7.8,7.2 -3.2,1.6 -6.7,2.3 -10.4,2.3 z m 2.2,-7.3 c 3.6,0 6.6,-0.9 8.9,-2.7 2.3,-1.8 3.9,-4.1 5,-7 1.1,-2.9 1.6,-6 1.6,-9.3 v -2 h -11.1 c -2.5,0 -4.9,0.3 -7.3,0.8 -2.4,0.6 -4.3,1.6 -5.9,3.2 -1.5,1.6 -2.3,3.8 -2.3,6.8 0,3.4 1,5.9 3.1,7.6 1.9,1.7 4.6,2.6 8,2.6 z"
   id="path2" />
			<path
   class="st6"
   d="m 475.9,329.1 c -4.5,0 -8.5,-0.8 -12.1,-2.4 -3.6,-1.6 -6.7,-4 -9.2,-7.3 -5,-6.5 -7.6,-15.6 -7.6,-27.3 0,-7.8 1.1,-14.4 3.4,-20 2.3,-5.5 5.6,-9.8 9.9,-12.7 4.3,-3 9.5,-4.4 15.5,-4.4 3.1,0 5.9,0.3 8.4,0.9 2.5,0.6 5,1.6 7.5,3 v 9.9 c -2.3,-1.9 -4.9,-3.4 -7.6,-4.5 -2.8,-1 -5.5,-1.5 -8.3,-1.5 -6.2,0 -10.9,2.4 -14,7.3 -3.1,4.8 -4.7,12.2 -4.7,22 0,19.5 6.3,29.2 18.8,29.2 2.7,0 5.5,-0.5 8.3,-1.5 2.7,-1 5.2,-2.5 7.5,-4.5 v 9.9 c -2.5,1.3 -5,2.3 -7.6,3 -2.5,0.6 -5.2,0.9 -8.2,0.9 z"
   id="path3" />
			<path
   class="st6"
   d="m 522.3,329.1 c -5.2,0 -9.4,-1.5 -12.8,-4.5 -3.4,-3 -5,-7.3 -5,-12.8 0,-4.6 1.1,-8.2 3.3,-10.8 2.2,-2.6 5.2,-4.4 8.8,-5.5 3.6,-1.1 7.4,-1.6 11.5,-1.6 h 11.8 v -1.4 c 0,-4.6 -1.2,-7.7 -3.5,-9.5 -2.3,-1.8 -5.6,-2.7 -9.7,-2.7 -3.3,0 -6.4,0.4 -9.6,1.3 -3.1,0.9 -6,2.1 -8.8,3.7 v -8.8 c 2.9,-1.1 5.9,-2 8.9,-2.7 3,-0.7 6.1,-1.1 9.2,-1.1 3.2,0 6.3,0.4 9.3,1.3 3,0.9 5.6,2.3 7.8,4.3 2.2,2 3.7,4.7 4.4,8 0.5,2.4 0.8,5.9 0.8,10.7 v 11 c 0,3 0.2,6.3 0.5,10 0.3,3.7 1.1,6.9 2.3,9.7 h -8.9 c -0.5,-1.2 -1,-2.6 -1.3,-4 -0.3,-1.4 -0.6,-2.8 -0.8,-4.1 -1.9,3.2 -4.5,5.6 -7.8,7.2 -3.2,1.6 -6.7,2.3 -10.4,2.3 z m 2.1,-7.3 c 3.6,0 6.6,-0.9 8.9,-2.7 2.3,-1.8 3.9,-4.1 5,-7 1.1,-2.9 1.6,-6 1.6,-9.3 v -2 h -11.1 c -2.5,0 -4.9,0.3 -7.3,0.8 -2.4,0.6 -4.3,1.6 -5.9,3.2 -1.5,1.6 -2.3,3.8 -2.3,6.8 0,3.4 1,5.9 3.1,7.6 2,1.7 4.7,2.6 8,2.6 z"
   id="path4" />
			<path
   class="st6"
   d="m 564.8,274.2 h 7.9 l 0.9,8 c 3.2,-6.2 8.5,-9.3 15.7,-9.3 10.9,0 16.4,7.2 16.4,21.7 v 33.2 h -8.9 v -33.2 c 0,-4.8 -0.8,-8.4 -2.5,-10.6 -1.7,-2.3 -4.3,-3.4 -7.8,-3.4 -4.2,0 -7.4,1.5 -9.6,4.4 -2.2,3 -3.4,7.1 -3.4,12.5 v 30.3 h -8.8 v -53.6 z"
   id="path5" />
			<path
   class="st6"
   d="m 622.3,274.2 h 7.9 l 0.9,8 c 3.2,-6.2 8.5,-9.3 15.7,-9.3 10.9,0 16.4,7.2 16.4,21.7 v 33.2 h -8.9 v -33.2 c 0,-4.8 -0.8,-8.4 -2.5,-10.6 -1.7,-2.3 -4.3,-3.4 -7.8,-3.4 -4.2,0 -7.4,1.5 -9.6,4.4 -2.2,3 -3.4,7.1 -3.4,12.5 v 30.3 h -8.8 v -53.6 z"
   id="path6" />
			<path
   class="st6"
   d="m 702.9,329.1 c -8.3,0 -14.7,-2.5 -19.5,-7.4 -4.7,-5 -7.1,-11.7 -7.1,-20.3 0,-5.3 0.9,-10.1 2.8,-14.5 1.9,-4.4 4.6,-7.7 8.3,-10.3 3.7,-2.5 8.2,-3.8 13.7,-3.8 7.1,0 12.7,2.3 16.6,6.9 3.9,4.6 5.9,10.9 5.9,19 v 4.3 h -38.1 v 0.3 c 0,5.6 1.5,10 4.4,13.4 2.9,3.3 7.3,5 13,5 3.3,0 6.5,-0.5 9.6,-1.6 3.1,-1.1 6.1,-2.3 9,-3.8 v 8.8 c -3,1.2 -6.1,2.2 -9.2,3 -2.9,0.7 -6.1,1 -9.4,1 z M 715,296.2 c 0,-3 -0.4,-5.6 -1.3,-8 -0.9,-2.4 -2.3,-4.3 -4.3,-5.7 -2,-1.4 -4.6,-2.1 -7.8,-2.1 -3.3,0 -6,0.7 -8.2,2.1 -2.2,1.4 -3.9,3.3 -5.1,5.7 -1.2,2.4 -2,5.1 -2.3,8 z"
   id="path7" />
		</g>
	</g>
	<g
   id="g8">
		<path
   class="st4"
   d="m 219.4,305.8 c -6.3,0 -11.3,-5.1 -11.3,-11.3 0,-6.3 5.1,-11.3 11.3,-11.3 6.3,0 11.3,5.1 11.3,11.3 0.1,6.2 -5,11.3 -11.3,11.3 z m 0,-19.4 c -4.5,0 -8.1,3.6 -8.1,8.1 0,4.5 3.6,8.1 8.1,8.1 4.5,0 8.1,-3.6 8.1,-8.1 0,-4.5 -3.6,-8.1 -8.1,-8.1 z"
   id="path8" />
	</g>
	<g
   id="g9">
		<path
   class="st3"
   d="m 219.4,317.3 c -12.6,0 -22.8,-10.2 -22.8,-22.8 0,-12.6 10.2,-22.8 22.8,-22.8 12.6,0 22.8,10.2 22.8,22.8 0.1,12.5 -10.2,22.8 -22.8,22.8 z m 0,-44.4 c -11.9,0 -21.6,9.7 -21.6,21.6 0,11.9 9.7,21.6 21.6,21.6 11.9,0 21.6,-9.7 21.6,-21.6 0,-12 -9.6,-21.6 -21.6,-21.6 z"
   id="path9" />
	</g>
	<g
   id="g10">
		<path
   class="st3"
   d="m 219.4,349.1 c -30.2,0 -54.7,-24.5 -54.7,-54.7 0,-30.2 24.5,-54.7 54.7,-54.7 30.2,0 54.7,24.5 54.7,54.7 0,30.2 -24.5,54.7 -54.7,54.7 z m 0,-107.3 c -29,0 -52.6,23.6 -52.6,52.6 0,29 23.6,52.6 52.6,52.6 29,0 52.6,-23.6 52.6,-52.6 0.1,-29 -23.5,-52.6 -52.6,-52.6 z"
   id="path10" />
	</g>
	<g
   id="g11">
		<path
   class="st3"
   d="m 219.4,370.8 c -42.1,0 -76.3,-34.2 -76.3,-76.3 0,-42.1 34.2,-76.3 76.3,-76.3 42.1,0 76.3,34.2 76.3,76.3 0.1,42 -34.2,76.3 -76.3,76.3 z m 0,-151 c -41.2,0 -74.7,33.5 -74.7,74.7 0,41.2 33.5,74.7 74.7,74.7 41.2,0 74.7,-33.5 74.7,-74.7 0,-41.2 -33.5,-74.7 -74.7,-74.7 z"
   id="path11" />
	</g>
	<g
   id="g135">
		<g
   id="g22">
			<g
   id="g16">
				<g
   id="g15">
					<g
   id="g14">
						<g
   id="g12">
							<rect
   x="214.10001"
   y="294"
   class="st7"
   width="11.3"
   height="0.80000001"
   id="rect11" />
						</g>
						<g
   id="g13">
							<rect
   x="213.3"
   y="293.10001"
   class="st7"
   width="12.9"
   height="2.4000001"
   id="rect12" />
						</g>
					</g>
				</g>
			</g>
			<g
   id="g21">
				<g
   id="g20">
					<g
   id="g19">
						<g
   id="g17">
							<rect
   x="219.39999"
   y="288.70001"
   class="st7"
   width="0.80000001"
   height="11.3"
   id="rect16" />
						</g>
						<g
   id="g18">
							<rect
   x="218.5"
   y="287.89999"
   class="st7"
   width="2.4000001"
   height="12.9"
   id="rect17" />
						</g>
					</g>
				</g>
			</g>
		</g>
		<g
   id="g33">
			<g
   id="g27">
				<g
   id="g26">
					<g
   id="g25">
						<g
   id="g23">
							<rect
   x="214.10001"
   y="216.89999"
   class="st7"
   width="11.3"
   height="0.80000001"
   id="rect22" />
						</g>
						<g
   id="g24">
							<rect
   x="213.3"
   y="216.10001"
   class="st7"
   width="12.9"
   height="2.4000001"
   id="rect23" />
						</g>
					</g>
				</g>
			</g>
			<g
   id="g32">
				<g
   id="g31">
					<g
   id="g30">
						<g
   id="g28">
							<rect
   x="219.39999"
   y="211.7"
   class="st7"
   width="0.80000001"
   height="11.3"
   id="rect27" />
						</g>
						<g
   id="g29">
							<rect
   x="218.5"
   y="210.8"
   class="st7"
   width="2.4000001"
   height="12.9"
   id="rect28" />
						</g>
					</g>
				</g>
			</g>
		</g>
		<g
   id="g44">
			<g
   id="g38">
				<g
   id="g37">
					<g
   id="g36">
						<g
   id="g34">
							<rect
   x="214.10001"
   y="371.10001"
   class="st7"
   width="11.3"
   height="0.80000001"
   id="rect33" />
						</g>
						<g
   id="g35">
							<rect
   x="213.3"
   y="370.29999"
   class="st7"
   width="12.9"
   height="2.4000001"
   id="rect34" />
						</g>
					</g>
				</g>
			</g>
			<g
   id="g43">
				<g
   id="g42">
					<g
   id="g41">
						<g
   id="g39">
							<rect
   x="219.39999"
   y="365.89999"
   class="st7"
   width="0.80000001"
   height="11.3"
   id="rect38" />
						</g>
						<g
   id="g40">
							<rect
   x="218.5"
   y="365.10001"
   class="st7"
   width="2.4000001"
   height="12.9"
   id="rect39" />
						</g>
					</g>
				</g>
			</g>
		</g>
		<g
   id="g55">
			<g
   id="g49">
				<g
   id="g48">
					<g
   id="g47">
						<g
   id="g45">
							<rect
   x="290.79999"
   y="294"
   class="st7"
   width="11.3"
   height="0.80000001"
   id="rect44" />
						</g>
						<g
   id="g46">
							<rect
   x="290"
   y="293.10001"
   class="st7"
   width="12.9"
   height="2.4000001"
   id="rect45" />
						</g>
					</g>
				</g>
			</g>
			<g
   id="g54">
				<g
   id="g53">
					<g
   id="g52">
						<g
   id="g50">
							<rect
   x="296.10001"
   y="288.70001"
   class="st7"
   width="0.80000001"
   height="11.3"
   id="rect49" />
						</g>
						<g
   id="g51">
							<rect
   x="295.20001"
   y="287.89999"
   class="st7"
   width="2.4000001"
   height="12.9"
   id="rect50" />
						</g>
					</g>
				</g>
			</g>
		</g>
		<g
   id="g66">
			<g
   id="g60">
				<g
   id="g59">
					<g
   id="g58">
						<g
   id="g56">
							<rect
   x="136.7"
   y="294"
   class="st7"
   width="11.3"
   height="0.80000001"
   id="rect55" />
						</g>
						<g
   id="g57">
							<rect
   x="135.8"
   y="293.10001"
   class="st7"
   width="12.9"
   height="2.4000001"
   id="rect56" />
						</g>
					</g>
				</g>
			</g>
			<g
   id="g65">
				<g
   id="g64">
					<g
   id="g63">
						<g
   id="g61">
							<rect
   x="141.89999"
   y="288.70001"
   class="st7"
   width="0.80000001"
   height="11.3"
   id="rect60" />
						</g>
						<g
   id="g62">
							<rect
   x="141.10001"
   y="287.89999"
   class="st7"
   width="2.4000001"
   height="12.9"
   id="rect61" />
						</g>
					</g>
				</g>
			</g>
		</g>
		<g
   id="g89">
			<g
   id="g77">
				<g
   id="g71">
					<g
   id="g70">
						<g
   id="g69">
							<g
   id="g67">
								<rect
   x="142.7"
   y="365.89999"
   class="st7"
   width="0.80000001"
   height="11.3"
   id="rect66" />
							</g>
							<g
   id="g68">
								<rect
   x="141.89999"
   y="365.10001"
   class="st7"
   width="2.4000001"
   height="12.9"
   id="rect67" />
							</g>
						</g>
					</g>
				</g>
				<g
   id="g76">
					<g
   id="g75">
						<g
   id="g74">
							<g
   id="g72">
								<rect
   x="137.5"
   y="371.10001"
   class="st7"
   width="11.3"
   height="0.80000001"
   id="rect71" />
							</g>
							<g
   id="g73">
								<rect
   x="136.7"
   y="370.29999"
   class="st7"
   width="12.9"
   height="2.4000001"
   id="rect72" />
							</g>
						</g>
					</g>
				</g>
			</g>
			<g
   id="g88">
				<g
   id="g82">
					<g
   id="g81">
						<g
   id="g80">
							<g
   id="g78">
								<rect
   x="142.7"
   y="211.7"
   class="st7"
   width="0.80000001"
   height="11.3"
   id="rect77" />
							</g>
							<g
   id="g79">
								<rect
   x="141.89999"
   y="210.8"
   class="st7"
   width="2.4000001"
   height="12.9"
   id="rect78" />
							</g>
						</g>
					</g>
				</g>
				<g
   id="g87">
					<g
   id="g86">
						<g
   id="g85">
							<g
   id="g83">
								<rect
   x="137.5"
   y="216.89999"
   class="st7"
   width="11.3"
   height="0.80000001"
   id="rect82" />
							</g>
							<g
   id="g84">
								<rect
   x="136.7"
   y="216.10001"
   class="st7"
   width="12.9"
   height="2.4000001"
   id="rect83" />
							</g>
						</g>
					</g>
				</g>
			</g>
		</g>
		<g
   id="g112">
			<g
   id="g100">
				<g
   id="g94">
					<g
   id="g93">
						<g
   id="g92">
							<g
   id="g90">
								<rect
   x="295.70001"
   y="365.89999"
   class="st7"
   width="0.80000001"
   height="11.3"
   id="rect89" />
							</g>
							<g
   id="g91">
								<rect
   x="295.10001"
   y="365.29999"
   class="st7"
   width="1.9"
   height="12.4"
   id="rect90" />
							</g>
						</g>
					</g>
				</g>
				<g
   id="g99">
					<g
   id="g98">
						<g
   id="g97">
							<g
   id="g95">
								<rect
   x="290.5"
   y="371.10001"
   class="st7"
   width="11.3"
   height="0.80000001"
   id="rect94" />
							</g>
							<g
   id="g96">
								<rect
   x="289.89999"
   y="370.60001"
   class="st7"
   width="12.4"
   height="1.9"
   id="rect95" />
							</g>
						</g>
					</g>
				</g>
			</g>
			<g
   id="g111">
				<g
   id="g105">
					<g
   id="g104">
						<g
   id="g103">
							<g
   id="g101">
								<rect
   x="295.70001"
   y="211.7"
   class="st7"
   width="0.80000001"
   height="11.3"
   id="rect100" />
							</g>
							<g
   id="g102">
								<rect
   x="295.10001"
   y="211.10001"
   class="st7"
   width="1.9"
   height="12.4"
   id="rect101" />
							</g>
						</g>
					</g>
				</g>
				<g
   id="g110">
					<g
   id="g109">
						<g
   id="g108">
							<g
   id="g106">
								<rect
   x="290.5"
   y="216.89999"
   class="st7"
   width="11.3"
   height="0.80000001"
   id="rect105" />
							</g>
							<g
   id="g107">
								<rect
   x="289.89999"
   y="216.3"
   class="st7"
   width="12.4"
   height="1.9"
   id="rect106" />
							</g>
						</g>
					</g>
				</g>
			</g>
		</g>
		<g
   id="g123">
			<g
   id="g117">
				<g
   id="g116">
					<g
   id="g115">
						<g
   id="g113">
							<rect
   x="295.70001"
   y="365.89999"
   class="st7"
   width="0.80000001"
   height="11.3"
   id="rect112" />
						</g>
						<g
   id="g114">
							<rect
   x="294.89999"
   y="365.10001"
   class="st7"
   width="2.4000001"
   height="12.9"
   id="rect113" />
						</g>
					</g>
				</g>
			</g>
			<g
   id="g122">
				<g
   id="g121">
					<g
   id="g120">
						<g
   id="g118">
							<rect
   x="290.5"
   y="371.10001"
   class="st7"
   width="11.3"
   height="0.80000001"
   id="rect117" />
						</g>
						<g
   id="g119">
							<rect
   x="289.70001"
   y="370.29999"
   class="st7"
   width="12.9"
   height="2.4000001"
   id="rect118" />
						</g>
					</g>
				</g>
			</g>
		</g>
		<g
   id="g134">
			<g
   id="g128">
				<g
   id="g127">
					<g
   id="g126">
						<g
   id="g124">
							<rect
   x="295.70001"
   y="211.7"
   class="st7"
   width="0.80000001"
   height="11.3"
   id="rect123" />
						</g>
						<g
   id="g125">
							<rect
   x="294.89999"
   y="210.8"
   class="st7"
   width="2.4000001"
   height="12.9"
   id="rect124" />
						</g>
					</g>
				</g>
			</g>
			<g
   id="g133">
				<g
   id="g132">
					<g
   id="g131">
						<g
   id="g129">
							<rect
   x="290.5"
   y="216.89999"
   class="st7"
   width="11.3"
   height="0.80000001"
   id="rect128" />
						</g>
						<g
   id="g130">
							<rect
   x="289.70001"
   y="216.10001"
   class="st7"
   width="12.9"
   height="2.4000001"
   id="rect129" />
						</g>
					</g>
				</g>
			</g>
		</g>
	</g>
	<g
   id="g138">
		<path
   class="st3"
   d="m 296.2,346.7 c -6.5,9.6 -14.8,17.9 -24.4,24.4 h 2.8 c 8.3,-6 15.6,-13.3 21.5,-21.6 v -2.8 z"
   id="path135" />
		<path
   class="st3"
   d="m 143.5,241 c 6.2,-8.8 13.9,-16.4 22.6,-22.6 h -2.8 c -7.6,5.6 -14.2,12.3 -19.8,19.8 z"
   id="path136" />
		<path
   class="st3"
   d="m 296.2,242.2 v -2.8 c -5.8,-8 -12.8,-15.1 -20.7,-21 h -2.8 c 9.2,6.5 17.2,14.5 23.5,23.8 z"
   id="path137" />
		<path
   class="st3"
   d="m 143.5,347.9 v 2.8 c 5.8,7.8 12.8,14.7 20.7,20.4 h 2.8 c -9.1,-6.3 -17.1,-14.1 -23.5,-23.2 z"
   id="path138" />
	</g>
	<path
   class="st6"
   d="m 260.7,294.5 c -0.2,-1.7 -1.6,-2.9 -3.3,-2.9 -1.8,0 -3.3,1.5 -3.3,3.3 0,2.3 -0.2,4.7 -0.7,6.9 -1.6,7.8 -6.1,14.8 -12.7,19.9 l -9,5.8 c -1.5,1 -2,3 -1,4.5 0.2,0.4 0.5,0.7 0.9,0.9 0.3,0.5 0.8,0.8 1.4,0.8 h 66.2 z m -16.3,32.6 0.2,-0.1 c 7.9,-6 13.4,-14.5 15.3,-23.9 0.3,-1.4 0.5,-2.7 0.6,-4.1 l 30.9,31.5 h -52.3 z"
   id="path139" />
	<g
   id="g140">
		<path
   class="st4"
   d="m 185.4,372.3 h -6.5 v -77.6 c 0,-22.6 18.4,-41 41,-41 22.6,0 41,18.4 41,41 h -6.5 c 0,-19 -15.4,-34.4 -34.4,-34.4 -19,0 -34.4,15.4 -34.4,34.4 v 77.6 z"
   id="path140" />
	</g>
</g>
</svg>
